<mxfile host="Electron" agent="Mozilla/5.0 (Windows NT 10.0; Win64; x64) AppleWebKit/537.36 (KHTML, like Gecko) draw.io/24.7.17 Chrome/128.0.6613.36 Electron/32.0.1 Safari/537.36" version="24.7.17">
  <diagram name="Page-1" id="UDEYz5dfm4-ipFDJ6tIQ">
    <mxGraphModel dx="1024" dy="1766" grid="1" gridSize="10" guides="1" tooltips="1" connect="1" arrows="1" fold="1" page="1" pageScale="1" pageWidth="827" pageHeight="1169" math="0" shadow="0">
      <root>
        <mxCell id="0" />
        <mxCell id="1" parent="0" />
        <mxCell id="QiZa8I6VzFnnw5llZ_Jp-1" value="12/Supplementary" style="text;html=1;align=left;verticalAlign=middle;whiteSpace=wrap;rounded=0;" vertex="1" parent="1">
          <mxGeometry x="44" y="140" width="120" height="30" as="geometry" />
        </mxCell>
        <mxCell id="QiZa8I6VzFnnw5llZ_Jp-2" value="文字 / Text" style="text;html=1;align=left;verticalAlign=middle;whiteSpace=wrap;rounded=0;fontSize=24;" vertex="1" parent="1">
          <mxGeometry x="44" y="40" width="150" height="30" as="geometry" />
        </mxCell>
        <mxCell id="QiZa8I6VzFnnw5llZ_Jp-3" value="13/Content-s" style="text;html=1;align=left;verticalAlign=middle;whiteSpace=wrap;rounded=0;fontSize=13;" vertex="1" parent="1">
          <mxGeometry x="44" y="190" width="100" height="30" as="geometry" />
        </mxCell>
        <mxCell id="QiZa8I6VzFnnw5llZ_Jp-4" value="14/Content-m" style="text;html=1;align=left;verticalAlign=middle;whiteSpace=wrap;rounded=0;fontSize=14;" vertex="1" parent="1">
          <mxGeometry x="44" y="230" width="100" height="30" as="geometry" />
        </mxCell>
        <mxCell id="QiZa8I6VzFnnw5llZ_Jp-5" value="14/Content-l" style="text;html=1;align=left;verticalAlign=middle;whiteSpace=wrap;rounded=0;fontSize=14;fontStyle=1" vertex="1" parent="1">
          <mxGeometry x="44" y="270" width="100" height="30" as="geometry" />
        </mxCell>
        <mxCell id="QiZa8I6VzFnnw5llZ_Jp-7" value="16/Title-s" style="text;html=1;align=left;verticalAlign=middle;whiteSpace=wrap;rounded=0;fontSize=16;" vertex="1" parent="1">
          <mxGeometry x="224" y="190" width="100" height="30" as="geometry" />
        </mxCell>
        <mxCell id="QiZa8I6VzFnnw5llZ_Jp-8" value="20/Title-m" style="text;html=1;align=left;verticalAlign=middle;whiteSpace=wrap;rounded=0;fontSize=20;" vertex="1" parent="1">
          <mxGeometry x="224" y="230" width="100" height="30" as="geometry" />
        </mxCell>
        <mxCell id="QiZa8I6VzFnnw5llZ_Jp-9" value="24/Title-l" style="text;html=1;align=left;verticalAlign=middle;whiteSpace=wrap;rounded=0;fontSize=24;" vertex="1" parent="1">
          <mxGeometry x="224" y="270" width="100" height="30" as="geometry" />
        </mxCell>
        <mxCell id="QiZa8I6VzFnnw5llZ_Jp-10" value="36/Emphasis-s" style="text;align=left;verticalAlign=middle;whiteSpace=wrap;rounded=0;fontSize=36;" vertex="1" parent="1">
          <mxGeometry x="404" y="150" width="260" height="30" as="geometry" />
        </mxCell>
        <mxCell id="QiZa8I6VzFnnw5llZ_Jp-11" value="48/Emphasis-s" style="text;align=left;verticalAlign=middle;whiteSpace=wrap;rounded=0;fontSize=48;" vertex="1" parent="1">
          <mxGeometry x="404" y="200" width="320" height="30" as="geometry" />
        </mxCell>
        <mxCell id="QiZa8I6VzFnnw5llZ_Jp-12" value="56/Emphasis-s" style="text;align=left;verticalAlign=middle;whiteSpace=wrap;rounded=0;fontSize=56;" vertex="1" parent="1">
          <mxGeometry x="404" y="260" width="380" height="30" as="geometry" />
        </mxCell>
        <mxCell id="QiZa8I6VzFnnw5llZ_Jp-13" value="" style="endArrow=none;html=1;rounded=0;fontColor=#bababa;strokeColor=#969696;" edge="1" parent="1">
          <mxGeometry width="50" height="50" relative="1" as="geometry">
            <mxPoint x="40" y="72" as="sourcePoint" />
            <mxPoint x="800" y="72" as="targetPoint" />
          </mxGeometry>
        </mxCell>
        <mxCell id="QiZa8I6VzFnnw5llZ_Jp-15" value="" style="rounded=0;whiteSpace=wrap;html=1;strokeColor=#B5B5B5;fillColor=none;" vertex="1" parent="1">
          <mxGeometry x="20" y="120" width="790" height="210" as="geometry" />
        </mxCell>
        <mxCell id="QiZa8I6VzFnnw5llZ_Jp-16" value="字号 / Font Size" style="text;html=1;align=left;verticalAlign=middle;whiteSpace=wrap;rounded=0;fontSize=20;" vertex="1" parent="1">
          <mxGeometry x="44" y="85" width="156" height="30" as="geometry" />
        </mxCell>
        <mxCell id="QiZa8I6VzFnnw5llZ_Jp-17" value="" style="rounded=0;whiteSpace=wrap;html=1;strokeColor=#B5B5B5;fillColor=none;" vertex="1" parent="1">
          <mxGeometry x="20" y="375" width="790" height="235" as="geometry" />
        </mxCell>
        <mxCell id="QiZa8I6VzFnnw5llZ_Jp-18" value="段落 / Phase" style="text;html=1;align=left;verticalAlign=middle;whiteSpace=wrap;rounded=0;fontSize=20;" vertex="1" parent="1">
          <mxGeometry x="44" y="340" width="156" height="30" as="geometry" />
        </mxCell>
        <mxCell id="QiZa8I6VzFnnw5llZ_Jp-21" value="&lt;h1 style=&quot;margin-top: 0px; font-size: 20px;&quot;&gt;&lt;font style=&quot;font-size: 20px; font-weight: normal;&quot;&gt;Normal Phase&lt;/font&gt;&lt;/h1&gt;&lt;p style=&quot;&quot;&gt;&lt;span style=&quot;font-size: 14px;&quot;&gt;Lorem ipsum dolor sit amet, consectetur adipisici elit, sed eiusmod tempor incidunt ut labore et dolore magna aliqua. Donec sed odio operae, eu vulputate felis rhoncus. Salutantibus vitae elit libero, a pharetra augue. Nihil hic munitissimus habendi senatus locus, nihil horum? A communi observantia non est recedendum.&lt;/span&gt;&lt;br&gt;&lt;/p&gt;" style="text;html=1;whiteSpace=wrap;overflow=hidden;rounded=0;" vertex="1" parent="1">
          <mxGeometry x="44" y="380" width="746" height="90" as="geometry" />
        </mxCell>
        <mxCell id="QiZa8I6VzFnnw5llZ_Jp-22" value="&lt;h1 style=&quot;margin-top: 0px; font-size: 20px;&quot;&gt;Emphasized Phase&lt;/h1&gt;&lt;p style=&quot;&quot;&gt;&lt;span style=&quot;font-size: 14px;&quot;&gt;Lorem ipsum dolor sit amet, &lt;b&gt;consectetur adipisici&lt;/b&gt; elit, sed eiusmod tempor incidunt ut labore et dolore magna aliqua. Donec sed odio operae, eu vulputate felis rhoncus. Salutantibus &lt;b&gt;vitae elit libero&lt;/b&gt;, a pharetra augue. Nihil hic munitissimus habendi senatus locus, nihil horum? A communi observantia non est recedendum.&lt;/span&gt;&lt;br&gt;&lt;/p&gt;" style="text;html=1;whiteSpace=wrap;overflow=hidden;rounded=0;" vertex="1" parent="1">
          <mxGeometry x="44" y="490" width="746" height="90" as="geometry" />
        </mxCell>
        <mxCell id="QiZa8I6VzFnnw5llZ_Jp-23" value="通用 / General" style="text;html=1;align=left;verticalAlign=middle;whiteSpace=wrap;rounded=0;fontSize=24;" vertex="1" parent="1">
          <mxGeometry x="48" y="-1110" width="192" height="30" as="geometry" />
        </mxCell>
        <mxCell id="QiZa8I6VzFnnw5llZ_Jp-24" value="" style="endArrow=none;html=1;rounded=0;fontColor=#bababa;strokeColor=#969696;" edge="1" parent="1">
          <mxGeometry width="50" height="50" relative="1" as="geometry">
            <mxPoint x="44" y="-1078" as="sourcePoint" />
            <mxPoint x="804" y="-1078" as="targetPoint" />
          </mxGeometry>
        </mxCell>
        <mxCell id="QiZa8I6VzFnnw5llZ_Jp-25" value="" style="rounded=0;whiteSpace=wrap;html=1;strokeColor=#B5B5B5;fillColor=none;" vertex="1" parent="1">
          <mxGeometry x="22" y="-1025" width="790" height="215" as="geometry" />
        </mxCell>
        <mxCell id="QiZa8I6VzFnnw5llZ_Jp-26" value="调色板 / Color Scheme" style="text;html=1;align=left;verticalAlign=middle;whiteSpace=wrap;rounded=0;fontSize=20;" vertex="1" parent="1">
          <mxGeometry x="46" y="-1060" width="244" height="30" as="geometry" />
        </mxCell>
        <mxCell id="QiZa8I6VzFnnw5llZ_Jp-27" value="" style="rounded=0;whiteSpace=wrap;html=1;strokeColor=#6c8ebf;fillColor=#dae8fc;" vertex="1" parent="1">
          <mxGeometry x="48" y="-1010" width="122" height="120" as="geometry" />
        </mxCell>
        <mxCell id="QiZa8I6VzFnnw5llZ_Jp-28" value="&lt;font style=&quot;font-size: 14px;&quot;&gt;主色 / Accent&lt;/font&gt;&lt;div&gt;&lt;div&gt;Misty Blue&lt;br&gt;&lt;div&gt;&lt;font color=&quot;#dae8fc&quot;&gt;&lt;span style=&quot;background-color: rgb(108, 142, 191);&quot;&gt;#DAE8FC&lt;/span&gt;&amp;nbsp;&lt;/font&gt; &lt;font color=&quot;#6c8ebf&quot;&gt;#6C8EBF&lt;/font&gt;&lt;/div&gt;&lt;/div&gt;&lt;/div&gt;" style="text;html=1;align=center;verticalAlign=middle;whiteSpace=wrap;rounded=0;" vertex="1" parent="1">
          <mxGeometry x="49" y="-880" width="120" height="60" as="geometry" />
        </mxCell>
        <mxCell id="QiZa8I6VzFnnw5llZ_Jp-29" value="" style="rounded=0;whiteSpace=wrap;html=1;strokeColor=#82b366;fillColor=#d5e8d4;" vertex="1" parent="1">
          <mxGeometry x="202" y="-1010" width="122" height="120" as="geometry" />
        </mxCell>
        <mxCell id="QiZa8I6VzFnnw5llZ_Jp-30" value="&lt;font style=&quot;font-size: 14px;&quot;&gt;成功 / Success&lt;/font&gt;&lt;div&gt;&lt;div&gt;Grass Green&lt;br&gt;&lt;div&gt;&lt;font style=&quot;background-color: rgb(130, 179, 102);&quot; color=&quot;#d5e8d4&quot;&gt;#&lt;/font&gt;&lt;font style=&quot;background-color: rgb(130, 179, 102);&quot; color=&quot;#d5e8d4&quot;&gt;D5E8D4&lt;/font&gt;&lt;font color=&quot;#dae8fc&quot;&gt;&amp;nbsp;&lt;/font&gt; &lt;font color=&quot;#82b366&quot;&gt;#&lt;/font&gt;&lt;span style=&quot;background-color: initial;&quot;&gt;&lt;font color=&quot;#82b366&quot;&gt;82B366&lt;/font&gt;&lt;/span&gt;&lt;/div&gt;&lt;/div&gt;&lt;/div&gt;" style="text;html=1;align=center;verticalAlign=middle;whiteSpace=wrap;rounded=0;" vertex="1" parent="1">
          <mxGeometry x="203" y="-880" width="120" height="60" as="geometry" />
        </mxCell>
        <mxCell id="QiZa8I6VzFnnw5llZ_Jp-31" value="" style="rounded=0;whiteSpace=wrap;html=1;strokeColor=#d79b00;fillColor=#ffe6cc;" vertex="1" parent="1">
          <mxGeometry x="360" y="-1010" width="122" height="120" as="geometry" />
        </mxCell>
        <mxCell id="QiZa8I6VzFnnw5llZ_Jp-32" value="&lt;font style=&quot;font-size: 14px;&quot;&gt;提醒 / Warning&lt;/font&gt;&lt;div&gt;&lt;div&gt;Grass Green&lt;br&gt;&lt;div&gt;&lt;font style=&quot;background-color: rgb(130, 179, 102);&quot; color=&quot;#d5e8d4&quot;&gt;#&lt;/font&gt;&lt;font style=&quot;background-color: rgb(130, 179, 102);&quot; color=&quot;#d5e8d4&quot;&gt;D5E8D4&lt;/font&gt;&lt;font color=&quot;#dae8fc&quot;&gt;&amp;nbsp;&lt;/font&gt; &lt;font color=&quot;#82b366&quot;&gt;#&lt;/font&gt;&lt;span style=&quot;background-color: initial;&quot;&gt;&lt;font color=&quot;#82b366&quot;&gt;82B366&lt;/font&gt;&lt;/span&gt;&lt;/div&gt;&lt;/div&gt;&lt;/div&gt;" style="text;html=1;align=center;verticalAlign=middle;whiteSpace=wrap;rounded=0;" vertex="1" parent="1">
          <mxGeometry x="361" y="-880" width="120" height="60" as="geometry" />
        </mxCell>
        <mxCell id="QiZa8I6VzFnnw5llZ_Jp-33" value="" style="rounded=0;whiteSpace=wrap;html=1;strokeColor=#b85450;fillColor=#f8cecc;" vertex="1" parent="1">
          <mxGeometry x="520" y="-1010" width="122" height="120" as="geometry" />
        </mxCell>
        <mxCell id="QiZa8I6VzFnnw5llZ_Jp-34" value="&lt;font style=&quot;font-size: 14px;&quot;&gt;危险 / Danger&lt;/font&gt;&lt;div&gt;&lt;div&gt;Grass Green&lt;br&gt;&lt;div&gt;&lt;font style=&quot;background-color: rgb(130, 179, 102);&quot; color=&quot;#d5e8d4&quot;&gt;#&lt;/font&gt;&lt;font style=&quot;background-color: rgb(130, 179, 102);&quot; color=&quot;#d5e8d4&quot;&gt;D5E8D4&lt;/font&gt;&lt;font color=&quot;#dae8fc&quot;&gt;&amp;nbsp;&lt;/font&gt; &lt;font color=&quot;#82b366&quot;&gt;#&lt;/font&gt;&lt;span style=&quot;background-color: initial;&quot;&gt;&lt;font color=&quot;#82b366&quot;&gt;82B366&lt;/font&gt;&lt;/span&gt;&lt;/div&gt;&lt;/div&gt;&lt;/div&gt;" style="text;html=1;align=center;verticalAlign=middle;whiteSpace=wrap;rounded=0;" vertex="1" parent="1">
          <mxGeometry x="521" y="-880" width="120" height="60" as="geometry" />
        </mxCell>
        <mxCell id="QiZa8I6VzFnnw5llZ_Jp-35" value="按钮 / Button" style="text;html=1;align=left;verticalAlign=middle;whiteSpace=wrap;rounded=0;fontSize=24;" vertex="1" parent="1">
          <mxGeometry x="39" y="660" width="150" height="30" as="geometry" />
        </mxCell>
        <mxCell id="QiZa8I6VzFnnw5llZ_Jp-36" value="" style="endArrow=none;html=1;rounded=0;fontColor=#bababa;strokeColor=#969696;" edge="1" parent="1">
          <mxGeometry width="50" height="50" relative="1" as="geometry">
            <mxPoint x="35" y="692" as="sourcePoint" />
            <mxPoint x="795" y="692" as="targetPoint" />
          </mxGeometry>
        </mxCell>
        <mxCell id="QiZa8I6VzFnnw5llZ_Jp-37" value="" style="rounded=0;whiteSpace=wrap;html=1;strokeColor=#B5B5B5;fillColor=none;" vertex="1" parent="1">
          <mxGeometry x="22" y="710" width="790" height="190" as="geometry" />
        </mxCell>
        <mxCell id="QiZa8I6VzFnnw5llZ_Jp-39" value="Text-s" style="rounded=1;whiteSpace=wrap;html=1;" vertex="1" parent="1">
          <mxGeometry x="61" y="730" width="66" height="20" as="geometry" />
        </mxCell>
        <mxCell id="QiZa8I6VzFnnw5llZ_Jp-40" value="Text-m" style="rounded=1;whiteSpace=wrap;html=1;fontSize=14;" vertex="1" parent="1">
          <mxGeometry x="54.5" y="770" width="79" height="20" as="geometry" />
        </mxCell>
        <mxCell id="QiZa8I6VzFnnw5llZ_Jp-41" value="Text-L" style="rounded=1;whiteSpace=wrap;html=1;fontSize=14;fontStyle=1" vertex="1" parent="1">
          <mxGeometry x="49.5" y="810" width="89" height="30" as="geometry" />
        </mxCell>
        <mxCell id="QiZa8I6VzFnnw5llZ_Jp-42" value="Sketch" style="text;html=1;align=center;verticalAlign=middle;whiteSpace=wrap;rounded=0;" vertex="1" parent="1">
          <mxGeometry x="34" y="860" width="120" height="30" as="geometry" />
        </mxCell>
        <mxCell id="QiZa8I6VzFnnw5llZ_Jp-43" value="Text-s" style="rounded=1;whiteSpace=wrap;html=1;fillColor=#dae8fc;strokeColor=#6c8ebf;" vertex="1" parent="1">
          <mxGeometry x="181.5" y="730" width="66" height="20" as="geometry" />
        </mxCell>
        <mxCell id="QiZa8I6VzFnnw5llZ_Jp-44" value="Text-m" style="rounded=1;whiteSpace=wrap;html=1;fontSize=14;fillColor=#dae8fc;strokeColor=#6c8ebf;" vertex="1" parent="1">
          <mxGeometry x="175" y="770" width="79" height="20" as="geometry" />
        </mxCell>
        <mxCell id="QiZa8I6VzFnnw5llZ_Jp-45" value="Text-L" style="rounded=1;whiteSpace=wrap;html=1;fontSize=14;fontStyle=1;fillColor=#dae8fc;strokeColor=#6c8ebf;" vertex="1" parent="1">
          <mxGeometry x="170" y="810" width="89" height="30" as="geometry" />
        </mxCell>
        <mxCell id="QiZa8I6VzFnnw5llZ_Jp-46" value="Normal" style="text;html=1;align=center;verticalAlign=middle;whiteSpace=wrap;rounded=0;" vertex="1" parent="1">
          <mxGeometry x="154.5" y="860" width="120" height="30" as="geometry" />
        </mxCell>
        <mxCell id="QiZa8I6VzFnnw5llZ_Jp-47" value="Text-s" style="rounded=1;whiteSpace=wrap;html=1;fillColor=#ffe6cc;strokeColor=#d79b00;" vertex="1" parent="1">
          <mxGeometry x="301.5" y="730" width="66" height="20" as="geometry" />
        </mxCell>
        <mxCell id="QiZa8I6VzFnnw5llZ_Jp-48" value="Text-m" style="rounded=1;whiteSpace=wrap;html=1;fontSize=14;fillColor=#ffe6cc;strokeColor=#d79b00;" vertex="1" parent="1">
          <mxGeometry x="295" y="770" width="79" height="20" as="geometry" />
        </mxCell>
        <mxCell id="QiZa8I6VzFnnw5llZ_Jp-49" value="Text-L" style="rounded=1;whiteSpace=wrap;html=1;fontSize=14;fontStyle=1;fillColor=#ffe6cc;strokeColor=#d79b00;" vertex="1" parent="1">
          <mxGeometry x="290" y="810" width="89" height="30" as="geometry" />
        </mxCell>
        <mxCell id="QiZa8I6VzFnnw5llZ_Jp-50" value="Warning" style="text;html=1;align=center;verticalAlign=middle;whiteSpace=wrap;rounded=0;" vertex="1" parent="1">
          <mxGeometry x="274.5" y="860" width="120" height="30" as="geometry" />
        </mxCell>
        <mxCell id="QiZa8I6VzFnnw5llZ_Jp-52" value="Text-s" style="rounded=1;whiteSpace=wrap;html=1;fillColor=#f8cecc;strokeColor=#b85450;" vertex="1" parent="1">
          <mxGeometry x="421.5" y="730" width="66" height="20" as="geometry" />
        </mxCell>
        <mxCell id="QiZa8I6VzFnnw5llZ_Jp-53" value="Text-m" style="rounded=1;whiteSpace=wrap;html=1;fontSize=14;fillColor=#f8cecc;strokeColor=#b85450;" vertex="1" parent="1">
          <mxGeometry x="415" y="770" width="79" height="20" as="geometry" />
        </mxCell>
        <mxCell id="QiZa8I6VzFnnw5llZ_Jp-54" value="Text-L" style="rounded=1;whiteSpace=wrap;html=1;fontSize=14;fontStyle=1;fillColor=#f8cecc;strokeColor=#b85450;" vertex="1" parent="1">
          <mxGeometry x="410" y="810" width="89" height="30" as="geometry" />
        </mxCell>
        <mxCell id="QiZa8I6VzFnnw5llZ_Jp-55" value="Danger" style="text;html=1;align=center;verticalAlign=middle;whiteSpace=wrap;rounded=0;" vertex="1" parent="1">
          <mxGeometry x="394.5" y="860" width="120" height="30" as="geometry" />
        </mxCell>
        <mxCell id="QiZa8I6VzFnnw5llZ_Jp-56" value="Text-s" style="rounded=1;whiteSpace=wrap;html=1;fillColor=none;strokeColor=#6c8ebf;" vertex="1" parent="1">
          <mxGeometry x="541.5" y="730" width="66" height="20" as="geometry" />
        </mxCell>
        <mxCell id="QiZa8I6VzFnnw5llZ_Jp-57" value="Text-m" style="rounded=1;whiteSpace=wrap;html=1;fontSize=14;fillColor=none;strokeColor=#6c8ebf;" vertex="1" parent="1">
          <mxGeometry x="535" y="770" width="79" height="20" as="geometry" />
        </mxCell>
        <mxCell id="QiZa8I6VzFnnw5llZ_Jp-58" value="Text-L" style="rounded=1;whiteSpace=wrap;html=1;fontSize=14;fontStyle=1;fillColor=none;strokeColor=#6c8ebf;" vertex="1" parent="1">
          <mxGeometry x="530" y="810" width="89" height="30" as="geometry" />
        </mxCell>
        <mxCell id="QiZa8I6VzFnnw5llZ_Jp-59" value="Plain" style="text;html=1;align=center;verticalAlign=middle;whiteSpace=wrap;rounded=0;" vertex="1" parent="1">
          <mxGeometry x="514.5" y="860" width="120" height="30" as="geometry" />
        </mxCell>
        <mxCell id="QiZa8I6VzFnnw5llZ_Jp-60" value="Text-s" style="rounded=1;whiteSpace=wrap;html=1;fillColor=none;strokeColor=none;fontColor=#404CFF;gradientColor=none;" vertex="1" parent="1">
          <mxGeometry x="668" y="730" width="66" height="20" as="geometry" />
        </mxCell>
        <mxCell id="QiZa8I6VzFnnw5llZ_Jp-61" value="Text-m" style="rounded=1;whiteSpace=wrap;html=1;fontSize=14;fillColor=none;strokeColor=none;fontColor=#404CFF;gradientColor=none;" vertex="1" parent="1">
          <mxGeometry x="661.5" y="770" width="79" height="20" as="geometry" />
        </mxCell>
        <mxCell id="QiZa8I6VzFnnw5llZ_Jp-62" value="Text-L" style="rounded=1;whiteSpace=wrap;html=1;fontSize=14;fontStyle=1;fillColor=none;strokeColor=none;fontColor=#404CFF;gradientColor=none;" vertex="1" parent="1">
          <mxGeometry x="656.5" y="810" width="89" height="30" as="geometry" />
        </mxCell>
        <mxCell id="QiZa8I6VzFnnw5llZ_Jp-63" value="Text" style="text;html=1;align=center;verticalAlign=middle;whiteSpace=wrap;rounded=0;" vertex="1" parent="1">
          <mxGeometry x="641" y="860" width="120" height="30" as="geometry" />
        </mxCell>
        <mxCell id="QiZa8I6VzFnnw5llZ_Jp-64" value="输入 / Input" style="text;html=1;align=left;verticalAlign=middle;whiteSpace=wrap;rounded=0;fontSize=24;" vertex="1" parent="1">
          <mxGeometry x="43" y="920" width="150" height="30" as="geometry" />
        </mxCell>
        <mxCell id="QiZa8I6VzFnnw5llZ_Jp-65" value="" style="endArrow=none;html=1;rounded=0;fontColor=#bababa;strokeColor=#969696;" edge="1" parent="1">
          <mxGeometry width="50" height="50" relative="1" as="geometry">
            <mxPoint x="39" y="952" as="sourcePoint" />
            <mxPoint x="799" y="952" as="targetPoint" />
          </mxGeometry>
        </mxCell>
        <mxCell id="QiZa8I6VzFnnw5llZ_Jp-66" value="" style="rounded=0;whiteSpace=wrap;html=1;strokeColor=#B5B5B5;fillColor=none;" vertex="1" parent="1">
          <mxGeometry x="22" y="1000" width="790" height="360" as="geometry" />
        </mxCell>
        <mxCell id="QiZa8I6VzFnnw5llZ_Jp-67" value="&lt;font color=&quot;#808080&quot;&gt;&lt;i&gt;Input something here ...&lt;/i&gt;&lt;/font&gt;" style="rounded=0;whiteSpace=wrap;html=1;align=left;" vertex="1" parent="1">
          <mxGeometry x="57" y="1020" width="281" height="30" as="geometry" />
        </mxCell>
        <mxCell id="QiZa8I6VzFnnw5llZ_Jp-71" value="" style="group" vertex="1" connectable="0" parent="1">
          <mxGeometry x="57" y="1100" width="281" height="30" as="geometry" />
        </mxCell>
        <mxCell id="QiZa8I6VzFnnw5llZ_Jp-70" value="Search" style="rounded=0;whiteSpace=wrap;html=1;fillColor=#dae8fc;strokeColor=#6c8ebf;" vertex="1" parent="QiZa8I6VzFnnw5llZ_Jp-71">
          <mxGeometry x="219" width="62" height="30" as="geometry" />
        </mxCell>
        <mxCell id="QiZa8I6VzFnnw5llZ_Jp-69" value="&lt;font color=&quot;#808080&quot;&gt;&lt;i&gt;Input something here ...&lt;/i&gt;&lt;/font&gt;" style="rounded=0;whiteSpace=wrap;html=1;align=left;" vertex="1" parent="QiZa8I6VzFnnw5llZ_Jp-71">
          <mxGeometry width="219" height="30" as="geometry" />
        </mxCell>
        <mxCell id="QiZa8I6VzFnnw5llZ_Jp-72" value="Input Field" style="text;html=1;align=center;verticalAlign=middle;whiteSpace=wrap;rounded=0;" vertex="1" parent="1">
          <mxGeometry x="134.5" y="1060" width="120" height="30" as="geometry" />
        </mxCell>
        <mxCell id="QiZa8I6VzFnnw5llZ_Jp-73" value="Input Field with Button" style="text;html=1;align=center;verticalAlign=middle;whiteSpace=wrap;rounded=0;" vertex="1" parent="1">
          <mxGeometry x="121.75" y="1140" width="151.5" height="30" as="geometry" />
        </mxCell>
        <mxCell id="QiZa8I6VzFnnw5llZ_Jp-75" value="Select Field" style="text;html=1;align=center;verticalAlign=middle;whiteSpace=wrap;rounded=0;" vertex="1" parent="1">
          <mxGeometry x="477.5" y="1060" width="120" height="30" as="geometry" />
        </mxCell>
        <mxCell id="QiZa8I6VzFnnw5llZ_Jp-77" value="" style="group" vertex="1" connectable="0" parent="1">
          <mxGeometry x="400" y="1020" width="281" height="30" as="geometry" />
        </mxCell>
        <mxCell id="QiZa8I6VzFnnw5llZ_Jp-74" value="&lt;font color=&quot;#808080&quot;&gt;&lt;i&gt;Select something here ...&lt;/i&gt;&lt;/font&gt;" style="rounded=0;whiteSpace=wrap;html=1;align=left;" vertex="1" parent="QiZa8I6VzFnnw5llZ_Jp-77">
          <mxGeometry width="281" height="30" as="geometry" />
        </mxCell>
        <mxCell id="QiZa8I6VzFnnw5llZ_Jp-76" value="" style="shape=image;verticalLabelPosition=bottom;labelBackgroundColor=default;verticalAlign=top;aspect=fixed;imageAspect=0;image=data:image/svg+xml,PHN2ZyB4bWxucz0iaHR0cDovL3d3dy53My5vcmcvMjAwMC9zdmciIHZpZXdCb3g9IjAgMCAyNCAyNCI+JiN4YTsgIDxwYXRoIGZpbGw9IiM4MDgwODAiIGQ9Ik03LjQyOTY4NzUgOS41TDUuOTI5Njg3NSAxMUwxMiAxNy4wNzAzMTJMMTguMDcwMzEyIDExTDE2LjU3MDMxMiA5LjVMMTIgMTQuMDcwMzEyTDcuNDI5Njg3NSA5LjUgeiIvPiYjeGE7PC9zdmc+;" vertex="1" parent="QiZa8I6VzFnnw5llZ_Jp-77">
          <mxGeometry x="252.5" y="3" width="24" height="24" as="geometry" />
        </mxCell>
        <mxCell id="QiZa8I6VzFnnw5llZ_Jp-79" value="Disabled Input Field" style="text;html=1;align=center;verticalAlign=middle;whiteSpace=wrap;rounded=0;" vertex="1" parent="1">
          <mxGeometry x="477.5" y="1140" width="120" height="30" as="geometry" />
        </mxCell>
        <mxCell id="QiZa8I6VzFnnw5llZ_Jp-81" value="" style="group" vertex="1" connectable="0" parent="1">
          <mxGeometry x="400" y="1100" width="281" height="30" as="geometry" />
        </mxCell>
        <mxCell id="QiZa8I6VzFnnw5llZ_Jp-78" value="&lt;font color=&quot;#808080&quot;&gt;&lt;i&gt;Input something here ...&lt;/i&gt;&lt;/font&gt;" style="rounded=0;whiteSpace=wrap;html=1;align=left;" vertex="1" parent="QiZa8I6VzFnnw5llZ_Jp-81">
          <mxGeometry width="281" height="30" as="geometry" />
        </mxCell>
        <mxCell id="QiZa8I6VzFnnw5llZ_Jp-80" value="" style="endArrow=none;html=1;rounded=0;exitX=0;exitY=0;exitDx=0;exitDy=0;entryX=1;entryY=1;entryDx=0;entryDy=0;strokeColor=#660000;" edge="1" parent="QiZa8I6VzFnnw5llZ_Jp-81" source="QiZa8I6VzFnnw5llZ_Jp-78" target="QiZa8I6VzFnnw5llZ_Jp-78">
          <mxGeometry width="50" height="50" relative="1" as="geometry">
            <mxPoint x="46" y="-30" as="sourcePoint" />
            <mxPoint x="96" y="-80" as="targetPoint" />
          </mxGeometry>
        </mxCell>
        <mxCell id="QiZa8I6VzFnnw5llZ_Jp-87" value="" style="group" vertex="1" connectable="0" parent="1">
          <mxGeometry x="57" y="1190" width="628" height="100" as="geometry" />
        </mxCell>
        <mxCell id="QiZa8I6VzFnnw5llZ_Jp-82" value="&lt;font color=&quot;#808080&quot;&gt;&lt;i&gt;Input something here ...&lt;/i&gt;&lt;/font&gt;" style="rounded=0;whiteSpace=wrap;html=1;align=left;labelPosition=center;verticalLabelPosition=middle;verticalAlign=middle;" vertex="1" parent="QiZa8I6VzFnnw5llZ_Jp-87">
          <mxGeometry width="631.5" height="100" as="geometry" />
        </mxCell>
        <mxCell id="QiZa8I6VzFnnw5llZ_Jp-83" value="" style="shape=image;verticalLabelPosition=bottom;labelBackgroundColor=default;verticalAlign=top;aspect=fixed;imageAspect=0;image=data:image/svg+xml,PHN2ZyB4bWxucz0iaHR0cDovL3d3dy53My5vcmcvMjAwMC9zdmciIHZpZXdCb3g9IjAgMCAyNCAyNCI+JiN4YTsgIDxwYXRoIGZpbGw9IiM4MDgwODAiIGQ9Ik01IDNMNSA0TDUgMTBMNSAxMkw1IDIxTDEzLjUgMjFDMTYuNTI1NTc3IDIxIDE5IDE4LjUyNTU3NyAxOSAxNS41QzE5IDEzLjMyNTIxNiAxNy43MTk2MTcgMTEuNDM5ODA3IDE1Ljg3Njk1MyAxMC41NDg4MjhDMTYuNTE1OTg1IDkuODQyMDE1MSAxNyA4LjgyODMyMTYgMTcgNy41QzE3IDUuNDE2NjY2NyAxNS44MTA3OCA0LjA5OTcyNTcgMTQuNjk3MjY2IDMuNTQyOTY4OEMxMy41ODM3NTIgMi45ODYyMTE3IDEyLjUgMyAxMi41IDNMNSAzIHogTSA3IDVMMTIuNSA1QzEyLjUgNSAxMy4xNjYyNDggNS4wMTM3ODggMTMuODAyNzM0IDUuMzMyMDMxMkMxNC40MzkyMiA1LjY1MDI3NDQgMTUgNi4wODMzMzMzIDE1IDcuNUMxNSA4LjkxNjY2NjcgMTQuNDM5MjIgOS4zNDk3MjU2IDEzLjgwMjczNCA5LjY2Nzk2ODhDMTMuMTY2MjQ4IDkuOTg2MjExNyAxMi41IDEwIDEyLjUgMTBMNyAxMEw3IDUgeiBNIDcgMTJMMTIuNSAxMkwxMi41OTk2MDkgMTJMMTMuNSAxMkMxNS40NDQ0MjMgMTIgMTcgMTMuNTU1NTc3IDE3IDE1LjVDMTcgMTcuNDQ0NDIzIDE1LjQ0NDQyMyAxOSAxMy41IDE5TDcgMTlMNyAxMiB6Ii8+JiN4YTs8L3N2Zz4=;" vertex="1" parent="QiZa8I6VzFnnw5llZ_Jp-87">
          <mxGeometry width="21" height="21" as="geometry" />
        </mxCell>
        <mxCell id="QiZa8I6VzFnnw5llZ_Jp-84" value="" style="shape=image;verticalLabelPosition=bottom;labelBackgroundColor=default;verticalAlign=top;aspect=fixed;imageAspect=0;image=data:image/svg+xml,PHN2ZyB4bWxucz0iaHR0cDovL3d3dy53My5vcmcvMjAwMC9zdmciIHZpZXdCb3g9IjAgMCAyNCAyNCI+JiN4YTsgIDxwYXRoIGZpbGw9IiM4MDgwODAiIGQ9Ik05IDNMOSA1TDExLjkzNzUgNUw5Ljg3ODkwNjIgMTlMNyAxOUw3IDIxTDE1IDIxTDE1IDE5TDExLjk3MDcwMyAxOUwxNC4wMjkyOTcgNUwxNyA1TDE3IDNMOSAzIHoiLz4mI3hhOzwvc3ZnPg==;" vertex="1" parent="QiZa8I6VzFnnw5llZ_Jp-87">
          <mxGeometry x="29.5" y="0.5" width="20" height="20" as="geometry" />
        </mxCell>
        <mxCell id="QiZa8I6VzFnnw5llZ_Jp-85" value="" style="shape=image;verticalLabelPosition=bottom;labelBackgroundColor=default;verticalAlign=top;aspect=fixed;imageAspect=0;image=data:image/svg+xml,PHN2ZyB4bWxucz0iaHR0cDovL3d3dy53My5vcmcvMjAwMC9zdmciIHZpZXdCb3g9IjAgMCAyNCAyNCI+JiN4YTsgIDxwYXRoIGZpbGw9IiM4MDgwODAiIGQ9Ik03IDJMMi4xMjUgMTVMNC4xMjUgMTVMNS42MjUgMTFMMTAuNjEzMjgxIDExTDExLjQ5NDE0MSA4LjY1MjM0MzhMOSAyTDcgMiB6IE0gOCA0LjY2Nzk2ODhMOS42MjUgOUw2LjM3NSA5TDggNC42Njc5Njg4IHogTSAxNSA1TDEwLjEyNSAxOEwxMi4xMjUgMThMMTMuNjI1IDE0TDE4LjM3NSAxNEwxOS44NzUgMThMMjEuODc1IDE4TDE3IDVMMTUgNSB6IE0gMTYgNy42Njc5Njg4TDE3LjYyNSAxMkwxNC4zNzUgMTJMMTYgNy42Njc5Njg4IHogTSAxMCAyMEwxMCAyMkwyMiAyMkwyMiAyMEwxMCAyMCB6Ii8+JiN4YTs8L3N2Zz4=;" vertex="1" parent="QiZa8I6VzFnnw5llZ_Jp-87">
          <mxGeometry x="100.5" y="0.5" width="20" height="20" as="geometry" />
        </mxCell>
        <mxCell id="QiZa8I6VzFnnw5llZ_Jp-86" value="" style="shape=image;verticalLabelPosition=bottom;labelBackgroundColor=default;verticalAlign=top;aspect=fixed;imageAspect=0;image=data:image/svg+xml,PHN2ZyB4bWxucz0iaHR0cDovL3d3dy53My5vcmcvMjAwMC9zdmciIHZpZXdCb3g9IjAgMCAyNCAyNCI+JiN4YTsgIDxwYXRoIGZpbGw9IiM4MDgwODAiIGQ9Ik0xMi43MTIsMi4wMjVDNi42MjgsMS42MDMsMS42MDMsNi42MjgsMi4wMjUsMTIuNzEyQzIuMzkxLDE4LjAwMiw3LjAwNiwyMiwxMi4zMDksMjJMMTUsMjJ2LTdoN2wwLTIuNjkxIEMyMiw3LjAwNiwxOC4wMDIsMi4zOTEsMTIuNzEyLDIuMDI1eiBNMTAuNSw0QzExLjMyOCw0LDEyLDQuNjcyLDEyLDUuNVMxMS4zMjgsNywxMC41LDdTOSw2LjMyOCw5LDUuNVM5LjY3Miw0LDEwLjUsNHogTTUuNSwxNSBDNC42NzIsMTUsNCwxNC4zMjgsNCwxMy41UzQuNjcyLDEyLDUuNSwxMlM3LDEyLjY3Miw3LDEzLjVTNi4zMjgsMTUsNS41LDE1eiBNNi41LDEwQzUuNjcyLDEwLDUsOS4zMjgsNSw4LjVTNS42NzIsNyw2LjUsNyBTOCw3LjY3Miw4LDguNVM3LjMyOCwxMCw2LjUsMTB6IE0xMSwyMGMtMS4xMDUsMC0yLTAuODk1LTItMmMwLTEuMTA1LDAuODk1LTIsMi0yczIsMC44OTUsMiwyQzEzLDE5LjEwNSwxMi4xMDUsMjAsMTEsMjB6IE0xNS41LDggQzE0LjY3Miw4LDE0LDcuMzI4LDE0LDYuNVMxNC42NzIsNSwxNS41LDVTMTcsNS42NzIsMTcsNi41UzE2LjMyOCw4LDE1LjUsOHogTTE4LjUsMTNjLTAuODI4LDAtMS41LTAuNjcyLTEuNS0xLjUgczAuNjcyLTEuNSwxLjUtMS41czEuNSwwLjY3MiwxLjUsMS41UzE5LjMyOCwxMywxOC41LDEzeiIvPiYjeGE7PC9zdmc+;" vertex="1" parent="QiZa8I6VzFnnw5llZ_Jp-87">
          <mxGeometry x="64" width="20" height="20" as="geometry" />
        </mxCell>
        <mxCell id="QiZa8I6VzFnnw5llZ_Jp-88" value="Rich Text Input Field" style="text;html=1;align=center;verticalAlign=middle;whiteSpace=wrap;rounded=0;" vertex="1" parent="1">
          <mxGeometry x="290" y="1300" width="120" height="30" as="geometry" />
        </mxCell>
        <mxCell id="QiZa8I6VzFnnw5llZ_Jp-89" value="文本输入 / Text Input" style="text;html=1;align=left;verticalAlign=middle;whiteSpace=wrap;rounded=0;fontSize=20;" vertex="1" parent="1">
          <mxGeometry x="44" y="967" width="204" height="30" as="geometry" />
        </mxCell>
        <mxCell id="QiZa8I6VzFnnw5llZ_Jp-93" value="" style="rounded=0;whiteSpace=wrap;html=1;strokeColor=#B5B5B5;fillColor=none;" vertex="1" parent="1">
          <mxGeometry x="22" y="1415" width="790" height="85" as="geometry" />
        </mxCell>
        <mxCell id="QiZa8I6VzFnnw5llZ_Jp-94" value="滑动&amp;nbsp; / Slider" style="text;html=1;align=left;verticalAlign=middle;whiteSpace=wrap;rounded=0;fontSize=20;" vertex="1" parent="1">
          <mxGeometry x="46" y="1380" width="224" height="30" as="geometry" />
        </mxCell>
        <mxCell id="QiZa8I6VzFnnw5llZ_Jp-98" value="" style="rounded=0;whiteSpace=wrap;html=1;strokeColor=#B5B5B5;fillColor=none;" vertex="1" parent="1">
          <mxGeometry x="22" y="1555" width="790" height="95" as="geometry" />
        </mxCell>
        <mxCell id="QiZa8I6VzFnnw5llZ_Jp-99" value="开关 / Switch" style="text;html=1;align=left;verticalAlign=middle;whiteSpace=wrap;rounded=0;fontSize=20;" vertex="1" parent="1">
          <mxGeometry x="46" y="1520" width="156" height="30" as="geometry" />
        </mxCell>
        <mxCell id="QiZa8I6VzFnnw5llZ_Jp-104" value="on" style="text;html=1;align=center;verticalAlign=middle;whiteSpace=wrap;rounded=0;" vertex="1" parent="1">
          <mxGeometry x="154" y="1610" width="51" height="30" as="geometry" />
        </mxCell>
        <mxCell id="QiZa8I6VzFnnw5llZ_Jp-105" value="off" style="text;html=1;align=center;verticalAlign=middle;whiteSpace=wrap;rounded=0;" vertex="1" parent="1">
          <mxGeometry x="60" y="1610" width="51" height="30" as="geometry" />
        </mxCell>
        <mxCell id="QiZa8I6VzFnnw5llZ_Jp-106" value="" style="group" vertex="1" connectable="0" parent="1">
          <mxGeometry x="61" y="1573" width="49" height="17" as="geometry" />
        </mxCell>
        <mxCell id="QiZa8I6VzFnnw5llZ_Jp-116" value="" style="group" vertex="1" connectable="0" parent="QiZa8I6VzFnnw5llZ_Jp-106">
          <mxGeometry width="49" height="17" as="geometry" />
        </mxCell>
        <mxCell id="QiZa8I6VzFnnw5llZ_Jp-100" value="" style="rounded=0;whiteSpace=wrap;html=1;fillColor=#4D4D4D;" vertex="1" parent="QiZa8I6VzFnnw5llZ_Jp-116">
          <mxGeometry width="49" height="17" as="geometry" />
        </mxCell>
        <mxCell id="QiZa8I6VzFnnw5llZ_Jp-101" value="" style="rounded=0;whiteSpace=wrap;html=1;fillColor=default;strokeColor=#999999;" vertex="1" parent="QiZa8I6VzFnnw5llZ_Jp-116">
          <mxGeometry x="4" y="1.75" width="13.5" height="13.5" as="geometry" />
        </mxCell>
        <mxCell id="QiZa8I6VzFnnw5llZ_Jp-107" value="" style="group" vertex="1" connectable="0" parent="1">
          <mxGeometry x="154.5" y="1573" width="49" height="17" as="geometry" />
        </mxCell>
        <mxCell id="QiZa8I6VzFnnw5llZ_Jp-117" value="" style="group" vertex="1" connectable="0" parent="QiZa8I6VzFnnw5llZ_Jp-107">
          <mxGeometry width="49" height="17" as="geometry" />
        </mxCell>
        <mxCell id="QiZa8I6VzFnnw5llZ_Jp-102" value="" style="rounded=0;whiteSpace=wrap;html=1;fillColor=#6C8EBF;strokeColor=#000000;" vertex="1" parent="QiZa8I6VzFnnw5llZ_Jp-117">
          <mxGeometry width="49" height="17" as="geometry" />
        </mxCell>
        <mxCell id="QiZa8I6VzFnnw5llZ_Jp-103" value="" style="rounded=0;whiteSpace=wrap;html=1;fillColor=default;strokeColor=#999999;" vertex="1" parent="QiZa8I6VzFnnw5llZ_Jp-117">
          <mxGeometry x="33" y="1.75" width="13.5" height="13.5" as="geometry" />
        </mxCell>
        <mxCell id="QiZa8I6VzFnnw5llZ_Jp-118" value="" style="rounded=0;whiteSpace=wrap;html=1;strokeColor=#B5B5B5;fillColor=none;" vertex="1" parent="1">
          <mxGeometry x="20" y="1715" width="790" height="495" as="geometry" />
        </mxCell>
        <mxCell id="QiZa8I6VzFnnw5llZ_Jp-119" value="列表 / List" style="text;html=1;align=left;verticalAlign=middle;whiteSpace=wrap;rounded=0;fontSize=20;" vertex="1" parent="1">
          <mxGeometry x="44" y="1680" width="156" height="30" as="geometry" />
        </mxCell>
        <mxCell id="QiZa8I6VzFnnw5llZ_Jp-120" value="List" style="swimlane;fontStyle=0;childLayout=stackLayout;horizontal=1;startSize=20;horizontalStack=0;resizeParent=1;resizeParentMax=0;resizeLast=0;collapsible=1;marginBottom=0;whiteSpace=wrap;html=1;" vertex="1" parent="1">
          <mxGeometry x="48" y="1740" width="281" height="140" as="geometry">
            <mxRectangle x="379" y="1770" width="60" height="30" as="alternateBounds" />
          </mxGeometry>
        </mxCell>
        <mxCell id="QiZa8I6VzFnnw5llZ_Jp-121" value="Option 1" style="text;strokeColor=none;fillColor=none;align=left;verticalAlign=middle;spacingLeft=4;spacingRight=4;overflow=hidden;points=[[0,0.5],[1,0.5]];portConstraint=eastwest;rotatable=0;whiteSpace=wrap;html=1;" vertex="1" parent="QiZa8I6VzFnnw5llZ_Jp-120">
          <mxGeometry y="20" width="281" height="30" as="geometry" />
        </mxCell>
        <mxCell id="QiZa8I6VzFnnw5llZ_Jp-122" value="Option 2 (Selected)" style="text;strokeColor=none;fillColor=#E6E6E6;align=left;verticalAlign=middle;spacingLeft=4;spacingRight=4;overflow=hidden;points=[[0,0.5],[1,0.5]];portConstraint=eastwest;rotatable=0;whiteSpace=wrap;html=1;labelBackgroundColor=none;" vertex="1" parent="QiZa8I6VzFnnw5llZ_Jp-120">
          <mxGeometry y="50" width="281" height="30" as="geometry" />
        </mxCell>
        <mxCell id="QiZa8I6VzFnnw5llZ_Jp-123" value="Option 3" style="text;strokeColor=none;fillColor=none;align=left;verticalAlign=middle;spacingLeft=4;spacingRight=4;overflow=hidden;points=[[0,0.5],[1,0.5]];portConstraint=eastwest;rotatable=0;whiteSpace=wrap;html=1;" vertex="1" parent="QiZa8I6VzFnnw5llZ_Jp-120">
          <mxGeometry y="80" width="281" height="30" as="geometry" />
        </mxCell>
        <mxCell id="QiZa8I6VzFnnw5llZ_Jp-124" value="Option 4" style="text;strokeColor=none;fillColor=none;align=left;verticalAlign=middle;spacingLeft=4;spacingRight=4;overflow=hidden;points=[[0,0.5],[1,0.5]];portConstraint=eastwest;rotatable=0;whiteSpace=wrap;html=1;" vertex="1" parent="QiZa8I6VzFnnw5llZ_Jp-120">
          <mxGeometry y="110" width="281" height="30" as="geometry" />
        </mxCell>
        <mxCell id="QiZa8I6VzFnnw5llZ_Jp-125" value="List" style="text;html=1;align=center;verticalAlign=middle;whiteSpace=wrap;rounded=0;" vertex="1" parent="1">
          <mxGeometry x="163" y="1930" width="51" height="30" as="geometry" />
        </mxCell>
        <mxCell id="QiZa8I6VzFnnw5llZ_Jp-134" value="" style="group" vertex="1" connectable="0" parent="1">
          <mxGeometry x="379" y="1740.0000000000005" width="281" height="169.99999999999955" as="geometry" />
        </mxCell>
        <mxCell id="QiZa8I6VzFnnw5llZ_Jp-126" value="" style="group" vertex="1" connectable="0" parent="QiZa8I6VzFnnw5llZ_Jp-134">
          <mxGeometry width="281" height="30" as="geometry" />
        </mxCell>
        <mxCell id="QiZa8I6VzFnnw5llZ_Jp-127" value="&lt;font color=&quot;#808080&quot;&gt;&lt;i&gt;Select something here ...&lt;/i&gt;&lt;/font&gt;" style="rounded=0;whiteSpace=wrap;html=1;align=left;" vertex="1" parent="QiZa8I6VzFnnw5llZ_Jp-126">
          <mxGeometry width="281" height="30" as="geometry" />
        </mxCell>
        <mxCell id="QiZa8I6VzFnnw5llZ_Jp-128" value="" style="shape=image;verticalLabelPosition=bottom;labelBackgroundColor=default;verticalAlign=top;aspect=fixed;imageAspect=0;image=data:image/svg+xml,PHN2ZyB4bWxucz0iaHR0cDovL3d3dy53My5vcmcvMjAwMC9zdmciIHZpZXdCb3g9IjAgMCAyNCAyNCI+JiN4YTsgIDxwYXRoIGZpbGw9IiM4MDgwODAiIGQ9Ik03LjQyOTY4NzUgOS41TDUuOTI5Njg3NSAxMUwxMiAxNy4wNzAzMTJMMTguMDcwMzEyIDExTDE2LjU3MDMxMiA5LjVMMTIgMTQuMDcwMzEyTDcuNDI5Njg3NSA5LjUgeiIvPiYjeGE7PC9zdmc+;" vertex="1" parent="QiZa8I6VzFnnw5llZ_Jp-126">
          <mxGeometry x="252.5" y="3" width="24" height="24" as="geometry" />
        </mxCell>
        <mxCell id="QiZa8I6VzFnnw5llZ_Jp-129" value="List" style="swimlane;fontStyle=0;childLayout=stackLayout;horizontal=1;startSize=20;horizontalStack=0;resizeParent=1;resizeParentMax=0;resizeLast=0;collapsible=1;marginBottom=0;whiteSpace=wrap;html=1;" vertex="1" parent="QiZa8I6VzFnnw5llZ_Jp-134">
          <mxGeometry y="29.999999999999545" width="281" height="140" as="geometry">
            <mxRectangle x="379" y="1770" width="60" height="30" as="alternateBounds" />
          </mxGeometry>
        </mxCell>
        <mxCell id="QiZa8I6VzFnnw5llZ_Jp-130" value="Option 1" style="text;strokeColor=none;fillColor=none;align=left;verticalAlign=middle;spacingLeft=4;spacingRight=4;overflow=hidden;points=[[0,0.5],[1,0.5]];portConstraint=eastwest;rotatable=0;whiteSpace=wrap;html=1;" vertex="1" parent="QiZa8I6VzFnnw5llZ_Jp-129">
          <mxGeometry y="20" width="281" height="30" as="geometry" />
        </mxCell>
        <mxCell id="QiZa8I6VzFnnw5llZ_Jp-131" value="Option 2 (Selected)" style="text;strokeColor=none;fillColor=#E6E6E6;align=left;verticalAlign=middle;spacingLeft=4;spacingRight=4;overflow=hidden;points=[[0,0.5],[1,0.5]];portConstraint=eastwest;rotatable=0;whiteSpace=wrap;html=1;labelBackgroundColor=none;" vertex="1" parent="QiZa8I6VzFnnw5llZ_Jp-129">
          <mxGeometry y="50" width="281" height="30" as="geometry" />
        </mxCell>
        <mxCell id="QiZa8I6VzFnnw5llZ_Jp-132" value="Option 3" style="text;strokeColor=none;fillColor=none;align=left;verticalAlign=middle;spacingLeft=4;spacingRight=4;overflow=hidden;points=[[0,0.5],[1,0.5]];portConstraint=eastwest;rotatable=0;whiteSpace=wrap;html=1;" vertex="1" parent="QiZa8I6VzFnnw5llZ_Jp-129">
          <mxGeometry y="80" width="281" height="30" as="geometry" />
        </mxCell>
        <mxCell id="QiZa8I6VzFnnw5llZ_Jp-133" value="Option 4" style="text;strokeColor=none;fillColor=none;align=left;verticalAlign=middle;spacingLeft=4;spacingRight=4;overflow=hidden;points=[[0,0.5],[1,0.5]];portConstraint=eastwest;rotatable=0;whiteSpace=wrap;html=1;" vertex="1" parent="QiZa8I6VzFnnw5llZ_Jp-129">
          <mxGeometry y="110" width="281" height="30" as="geometry" />
        </mxCell>
        <mxCell id="QiZa8I6VzFnnw5llZ_Jp-135" value="Select &amp;amp; List" style="text;html=1;align=center;verticalAlign=middle;whiteSpace=wrap;rounded=0;" vertex="1" parent="1">
          <mxGeometry x="468.75" y="1930" width="101.5" height="30" as="geometry" />
        </mxCell>
        <mxCell id="QiZa8I6VzFnnw5llZ_Jp-136" value="Options" style="swimlane;fontStyle=0;childLayout=stackLayout;horizontal=1;startSize=20;horizontalStack=0;resizeParent=1;resizeParentMax=0;resizeLast=0;collapsible=1;marginBottom=0;whiteSpace=wrap;html=1;" vertex="1" parent="1">
          <mxGeometry x="54.5" y="1990" width="172" height="140" as="geometry">
            <mxRectangle x="379" y="1770" width="60" height="30" as="alternateBounds" />
          </mxGeometry>
        </mxCell>
        <mxCell id="QiZa8I6VzFnnw5llZ_Jp-137" value="Option 1" style="text;strokeColor=none;fillColor=none;align=left;verticalAlign=middle;spacingLeft=4;spacingRight=4;overflow=hidden;points=[[0,0.5],[1,0.5]];portConstraint=eastwest;rotatable=0;whiteSpace=wrap;html=1;" vertex="1" parent="QiZa8I6VzFnnw5llZ_Jp-136">
          <mxGeometry y="20" width="172" height="30" as="geometry" />
        </mxCell>
        <mxCell id="QiZa8I6VzFnnw5llZ_Jp-138" value="Option 2" style="text;strokeColor=none;fillColor=none;align=left;verticalAlign=middle;spacingLeft=4;spacingRight=4;overflow=hidden;points=[[0,0.5],[1,0.5]];portConstraint=eastwest;rotatable=0;whiteSpace=wrap;html=1;labelBackgroundColor=none;" vertex="1" parent="QiZa8I6VzFnnw5llZ_Jp-136">
          <mxGeometry y="50" width="172" height="30" as="geometry" />
        </mxCell>
        <mxCell id="QiZa8I6VzFnnw5llZ_Jp-139" value="Option 3" style="text;strokeColor=none;fillColor=none;align=left;verticalAlign=middle;spacingLeft=4;spacingRight=4;overflow=hidden;points=[[0,0.5],[1,0.5]];portConstraint=eastwest;rotatable=0;whiteSpace=wrap;html=1;" vertex="1" parent="QiZa8I6VzFnnw5llZ_Jp-136">
          <mxGeometry y="80" width="172" height="30" as="geometry" />
        </mxCell>
        <mxCell id="QiZa8I6VzFnnw5llZ_Jp-140" value="Option 4" style="text;strokeColor=none;fillColor=none;align=left;verticalAlign=middle;spacingLeft=4;spacingRight=4;overflow=hidden;points=[[0,0.5],[1,0.5]];portConstraint=eastwest;rotatable=0;whiteSpace=wrap;html=1;" vertex="1" parent="QiZa8I6VzFnnw5llZ_Jp-136">
          <mxGeometry y="110" width="172" height="30" as="geometry" />
        </mxCell>
        <mxCell id="QiZa8I6VzFnnw5llZ_Jp-141" value="Selected" style="swimlane;fontStyle=0;childLayout=stackLayout;horizontal=1;startSize=20;horizontalStack=0;resizeParent=1;resizeParentMax=0;resizeLast=0;collapsible=1;marginBottom=0;whiteSpace=wrap;html=1;" vertex="1" parent="1">
          <mxGeometry x="274.5" y="1990" width="172" height="140" as="geometry">
            <mxRectangle x="379" y="1770" width="60" height="30" as="alternateBounds" />
          </mxGeometry>
        </mxCell>
        <mxCell id="QiZa8I6VzFnnw5llZ_Jp-142" value="Selected 1" style="text;strokeColor=none;fillColor=none;align=left;verticalAlign=middle;spacingLeft=4;spacingRight=4;overflow=hidden;points=[[0,0.5],[1,0.5]];portConstraint=eastwest;rotatable=0;whiteSpace=wrap;html=1;" vertex="1" parent="QiZa8I6VzFnnw5llZ_Jp-141">
          <mxGeometry y="20" width="172" height="30" as="geometry" />
        </mxCell>
        <mxCell id="QiZa8I6VzFnnw5llZ_Jp-143" value="Selected 2" style="text;strokeColor=none;fillColor=none;align=left;verticalAlign=middle;spacingLeft=4;spacingRight=4;overflow=hidden;points=[[0,0.5],[1,0.5]];portConstraint=eastwest;rotatable=0;whiteSpace=wrap;html=1;labelBackgroundColor=none;" vertex="1" parent="QiZa8I6VzFnnw5llZ_Jp-141">
          <mxGeometry y="50" width="172" height="30" as="geometry" />
        </mxCell>
        <mxCell id="QiZa8I6VzFnnw5llZ_Jp-147" style="text;strokeColor=none;fillColor=none;align=left;verticalAlign=middle;spacingLeft=4;spacingRight=4;overflow=hidden;points=[[0,0.5],[1,0.5]];portConstraint=eastwest;rotatable=0;whiteSpace=wrap;html=1;labelBackgroundColor=none;" vertex="1" parent="QiZa8I6VzFnnw5llZ_Jp-141">
          <mxGeometry y="80" width="172" height="30" as="geometry" />
        </mxCell>
        <mxCell id="QiZa8I6VzFnnw5llZ_Jp-146" style="text;strokeColor=none;fillColor=none;align=left;verticalAlign=middle;spacingLeft=4;spacingRight=4;overflow=hidden;points=[[0,0.5],[1,0.5]];portConstraint=eastwest;rotatable=0;whiteSpace=wrap;html=1;labelBackgroundColor=none;" vertex="1" parent="QiZa8I6VzFnnw5llZ_Jp-141">
          <mxGeometry y="110" width="172" height="30" as="geometry" />
        </mxCell>
        <mxCell id="QiZa8I6VzFnnw5llZ_Jp-148" value="" style="rounded=0;whiteSpace=wrap;html=1;" vertex="1" parent="1">
          <mxGeometry x="237" y="2016" width="26" height="26" as="geometry" />
        </mxCell>
        <mxCell id="QiZa8I6VzFnnw5llZ_Jp-149" value="" style="rounded=0;whiteSpace=wrap;html=1;" vertex="1" parent="1">
          <mxGeometry x="237" y="2080" width="26" height="26" as="geometry" />
        </mxCell>
        <mxCell id="QiZa8I6VzFnnw5llZ_Jp-150" value="" style="shape=image;verticalLabelPosition=bottom;labelBackgroundColor=default;verticalAlign=top;aspect=fixed;imageAspect=0;image=data:image/svg+xml,PHN2ZyB4bWxucz0iaHR0cDovL3d3dy53My5vcmcvMjAwMC9zdmciIHZpZXdCb3g9IjAgMCAyNCAyNCI+JiN4YTsgIDxwYXRoIGZpbGw9IiM4MDgwODAiIGQ9Ik0xMCA0LjkyOTY4NzVMMi45Mjk2ODc1IDEyTDEwIDE5LjA3MDMxMkwxMS41IDE3LjU3MDMxMkw2LjkyOTY4NzUgMTNMMjEgMTNMMjEgMTFMNi45Mjk2ODc1IDExTDExLjUgNi40Mjk2ODc1TDEwIDQuOTI5Njg3NSB6Ii8+JiN4YTs8L3N2Zz4=;" vertex="1" parent="1">
          <mxGeometry x="238" y="2081" width="24" height="24" as="geometry" />
        </mxCell>
        <mxCell id="QiZa8I6VzFnnw5llZ_Jp-151" value="" style="shape=image;verticalLabelPosition=bottom;labelBackgroundColor=default;verticalAlign=top;aspect=fixed;imageAspect=0;image=data:image/svg+xml,PHN2ZyB4bWxucz0iaHR0cDovL3d3dy53My5vcmcvMjAwMC9zdmciIHZpZXdCb3g9IjAgMCAyNCAyNCI+JiN4YTsgIDxwYXRoIGZpbGw9IiM4MDgwODAiIGQ9Ik0xNCA0LjkyOTY4NzVMMTIuNSA2LjQyOTY4NzVMMTcuMDcwMzEyIDExTDMgMTFMMyAxM0wxNy4wNzAzMTIgMTNMMTIuNSAxNy41NzAzMTJMMTQgMTkuMDcwMzEyTDIxLjA3MDMxMiAxMkwxNCA0LjkyOTY4NzUgeiIvPiYjeGE7PC9zdmc+;" vertex="1" parent="1">
          <mxGeometry x="238" y="2018" width="24" height="24" as="geometry" />
        </mxCell>
        <mxCell id="QiZa8I6VzFnnw5llZ_Jp-152" value="Transfer" style="text;html=1;align=center;verticalAlign=middle;whiteSpace=wrap;rounded=0;" vertex="1" parent="1">
          <mxGeometry x="224.5" y="2150" width="51" height="30" as="geometry" />
        </mxCell>
      </root>
    </mxGraphModel>
  </diagram>
</mxfile>
